<?xml version="1.0" encoding="utf-8"?>
<!-- Generator: Adobe Illustrator 22.1.0, SVG Export Plug-In . SVG Version: 6.00 Build 0)  -->
<svg version="1.1" id="Layer_1" xmlns="http://www.w3.org/2000/svg" xmlns:xlink="http://www.w3.org/1999/xlink" x="0px" y="0px"
	 viewBox="0 0 30 30" style="enable-background:new 0 0 30 30;" xml:space="preserve">
<g>
	<path d="M23.7,7.9C24.8,7.2,25.9,6.6,27,6c0,3.7,0,7.3,0,11c-3.2-1.8-6.3-3.6-9.5-5.5c1-0.6,2-1.2,3-1.8c-1.2-1.7-4.3-3.3-7.7-2.5
		C9.2,8,6.5,11.3,6.6,15.1c0,2.2,0.8,4,2.4,5.6c1.5,1.5,3.4,2.3,5.6,2.3c0,1.2,0,2.4,0,3.5c-4,0.1-8.8-2.4-10.8-7.4
		c-1.9-5-0.1-10.7,4.4-13.8c2.5-1.7,5.3-2.3,8.3-1.8C19.4,4.1,21.8,5.5,23.7,7.9z"/>
</g>
</svg>
